<svg width="30" height="30" viewBox="0 0 30 30" fill="none" xmlns="http://www.w3.org/2000/svg">
<path d="M19.9971 2.07617C24.3998 2.30428 27.8574 6.02467 27.8574 10.6387V14.4492L27.8467 14.8926C27.6334 19.2994 24.2579 22.791 19.9971 23.0117L19.5684 23.0225H15.2393L14.8418 23.0273C10.744 23.1252 6.75656 24.7341 3.63379 27.5947C3.44958 27.69 3.17341 27.7852 2.98926 27.7852C2.89717 27.7852 2.71321 27.7855 2.62109 27.6904C2.29888 27.5238 2.11755 27.284 2.07715 26.9717L2.06836 26.833V10.6387C2.06841 5.87582 5.7524 2.06553 10.3574 2.06543H19.5684L19.9971 2.07617ZM10.3574 4.06543C6.91996 4.06553 4.06841 6.91633 4.06836 10.6387V24.666C7.34126 22.3051 11.2467 21.0225 15.2393 21.0225H19.5684C23.0057 21.0222 25.8574 18.1715 25.8574 14.4492V10.6387C25.8574 6.91643 23.0057 4.06569 19.5684 4.06543H10.3574ZM10.5225 11.0166C11.3463 11.0167 12.0136 11.684 12.0137 12.5078C12.0137 13.3317 11.3463 13.9999 10.5225 14C9.69856 14 9.03027 13.3317 9.03027 12.5078C9.03035 11.684 9.69861 11.0166 10.5225 11.0166ZM15.4941 11.0166C16.318 11.0166 16.9863 11.684 16.9863 12.5078C16.9863 13.3317 16.318 14 15.4941 14C14.6704 13.9998 14.0029 13.3316 14.0029 12.5078C14.003 11.6841 14.6704 11.0168 15.4941 11.0166ZM20.4678 11.0166C21.2915 11.0167 21.9589 11.684 21.959 12.5078C21.959 13.3317 21.2916 13.9999 20.4678 14C19.6439 14 18.9756 13.3317 18.9756 12.5078C18.9757 11.684 19.6439 11.0166 20.4678 11.0166Z" fill="#868686"/>
</svg>
