<svg width="30" height="30" viewBox="0 0 30 30" fill="none" xmlns="http://www.w3.org/2000/svg">
<path d="M15 2.8125C11.7677 2.8125 8.66774 4.09654 6.38214 6.38214C4.09654 8.66774 2.8125 11.7677 2.8125 15C2.8125 18.2323 4.09654 21.3323 6.38214 23.6179C8.66774 25.9035 11.7677 27.1875 15 27.1875C17.5207 27.1875 20.168 26.4281 22.0816 25.1566C22.1842 25.0885 22.2723 25.0008 22.341 24.8985C22.4097 24.7963 22.4576 24.6815 22.4819 24.5608C22.5062 24.4401 22.5065 24.3157 22.4828 24.1949C22.459 24.074 22.4117 23.959 22.3436 23.8564C22.2754 23.7539 22.1877 23.6657 22.0854 23.5971C21.9832 23.5284 21.8684 23.4805 21.7477 23.4562C21.627 23.4319 21.5026 23.4316 21.3818 23.4553C21.2609 23.4791 21.1459 23.5264 21.0434 23.5945C19.4531 24.6539 17.134 25.3125 15 25.3125C12.9604 25.3125 10.9666 24.7077 9.27068 23.5745C7.5748 22.4414 6.25302 20.8308 5.47249 18.9464C4.69196 17.0621 4.48774 14.9886 4.88565 12.9881C5.28356 10.9877 6.26573 9.15019 7.70796 7.70796C9.15019 6.26573 10.9877 5.28356 12.9881 4.88565C14.9886 4.48774 17.0621 4.69196 18.9464 5.47249C20.8308 6.25302 22.4414 7.5748 23.5745 9.27068C24.7077 10.9666 25.3125 12.9604 25.3125 15C25.3125 18.0996 24.0375 18.75 22.9688 18.75C21.9 18.75 20.625 18.0996 20.625 15V10.3125C20.625 10.0639 20.5262 9.8254 20.3504 9.64959C20.1746 9.47377 19.9361 9.375 19.6875 9.375C19.4389 9.375 19.2004 9.47377 19.0246 9.64959C18.8488 9.8254 18.75 10.0639 18.75 10.3125V10.8117C17.9087 10.0574 16.8597 9.57398 15.7397 9.42438C14.6197 9.27479 13.4806 9.46597 12.4708 9.97302C11.461 10.4801 10.6274 11.2795 10.0784 12.2671C9.52946 13.2548 9.29069 14.3849 9.39319 15.5101C9.49569 16.6354 9.93473 17.7038 10.6531 18.576C11.3715 19.4482 12.3358 20.0838 13.4206 20.4001C14.5054 20.7163 15.6603 20.6985 16.7348 20.349C17.8094 19.9995 18.7537 19.3345 19.4449 18.4406C20.148 19.8469 21.3609 20.625 22.9688 20.625C25.6102 20.625 27.1875 18.5227 27.1875 15C27.1841 11.7687 25.899 8.67076 23.6141 6.3859C21.3292 4.10104 18.2313 2.81591 15 2.8125ZM15 18.75C14.2583 18.75 13.5333 18.5301 12.9166 18.118C12.2999 17.706 11.8193 17.1203 11.5355 16.4351C11.2516 15.7498 11.1774 14.9958 11.3221 14.2684C11.4667 13.541 11.8239 12.8728 12.3483 12.3483C12.8728 11.8239 13.541 11.4667 14.2684 11.3221C14.9958 11.1774 15.7498 11.2516 16.4351 11.5355C17.1203 11.8193 17.706 12.2999 18.118 12.9166C18.5301 13.5333 18.75 14.2583 18.75 15C18.75 15.9946 18.3549 16.9484 17.6516 17.6516C16.9484 18.3549 15.9946 18.75 15 18.75Z" fill="#868686"/>
</svg>
